<?xml version="1.0" encoding="UTF-8"?>
<svg id="Layer_1" data-name="Layer 1" xmlns="http://www.w3.org/2000/svg" viewBox="0 0 352.94 35">
  <defs>
    <style>
      .cls-1 {
        fill: #fff;
      }

      .cls-2 {
        fill: #f44f44;
      }
    </style>
  </defs>
  <g>
    <path class="cls-1" d="M9.07.7l4.5,22.98-5.74,5.94-.07-.13L0,.63h9.07v.07ZM37.86.63h9.01l-.07.07-8.75,32.57h-10.38l-4.24-19.32-4.37,19.32h-6.72v-.13L18.87.63h9.01l4.96,24.74L37.86.63Z"/>
    <path class="cls-1" d="M52.41,4.53c1.77-1.48,3.72-2.54,5.86-3.17,2.14-.63,4.28-.85,6.43-.67,2.15.19,4.22.78,6.22,1.77,2,.99,3.75,2.39,5.26,4.19.81.97,1.49,1.98,2.05,3.05l.03.14-12.7,10.66-7.48-2.42,9.5-7.97c-1.64-1.01-3.38-1.51-5.22-1.5-1.84,0-3.49.63-4.96,1.86-.9.76-1.6,1.65-2.09,2.69-.49,1.04-.77,2.11-.84,3.21-.07,1.1.09,2.22.46,3.35.38,1.13.98,2.19,1.82,3.18.64.76,1.45,1.43,2.44,1.99.98.56,2.04.94,3.16,1.13,1.12.19,2.27.17,3.45-.05s2.26-.75,3.26-1.59c.9-.76,1.62-1.57,2.16-2.45s.78-2.03.72-3.46v-.09s.15-.03.15-.03l7.94-2.31v.19c.2,2.69-.23,5.28-1.29,7.77-1.06,2.49-2.62,4.61-4.69,6.34-1.8,1.51-3.77,2.6-5.91,3.26-2.14.66-4.29.9-6.43.71-2.15-.19-4.22-.78-6.22-1.77-2-.99-3.74-2.37-5.22-4.14-1.51-1.8-2.58-3.77-3.21-5.91-.63-2.14-.85-4.28-.67-6.43s.79-4.22,1.8-6.24c1.01-2.01,2.42-3.77,4.22-5.28Z"/>
    <path class="cls-1" d="M141.71,22.9c-.76.35-1.46.6-2.11.76-.65.16-1.44.26-2.37.31-.93.05-2.08.06-3.46.05-1.37-.02-3.15-.02-5.33-.02v9.81h-6.68V.63h15.02c1.61,0,3.12.31,4.52.92,1.4.62,2.64,1.45,3.7,2.51,1.06,1.06,1.89,2.31,2.51,3.74.62,1.44.92,2.96.92,4.57,0,2.37-.62,4.48-1.87,6.35-1.25,1.86-2.87,3.25-4.86,4.17ZM128.45,17.35h8.34c1.42,0,2.62-.5,3.6-1.49.98-.99,1.47-2.33,1.47-4,0-.69-.13-1.37-.4-2.01-.27-.65-.63-1.22-1.09-1.73-.46-.5-.99-.91-1.61-1.21-.62-.3-1.27-.45-1.97-.45h-8.34v10.9ZM149.24,33.79h-8.43l-5.07-6.25,5.54-3.6,7.96,9.85Z"/>
    <path class="cls-1" d="M156.51,4.53c1.77-1.48,3.72-2.54,5.86-3.17,2.14-.63,4.28-.85,6.43-.67,2.15.19,4.22.78,6.22,1.77,2,.99,3.75,2.39,5.26,4.19.81.97,1.49,1.98,2.05,3.05l.03.14-12.7,10.66-7.48-2.42,9.5-7.97c-1.64-1.01-3.38-1.51-5.22-1.5-1.84,0-3.49.63-4.96,1.86-.9.76-1.6,1.65-2.09,2.69-.49,1.04-.77,2.11-.84,3.21-.07,1.1.09,2.22.46,3.35.38,1.13.98,2.19,1.82,3.18.64.76,1.45,1.43,2.44,1.99.98.56,2.04.94,3.16,1.13,1.12.19,2.27.17,3.45-.05,1.18-.22,2.26-.75,3.26-1.59.9-.76,1.62-1.57,2.16-2.45.54-.88.78-2.03.72-3.46v-.09s.15-.03.15-.03l7.94-2.31v.19c.2,2.69-.23,5.28-1.29,7.77-1.06,2.49-2.62,4.61-4.69,6.34-1.8,1.51-3.77,2.6-5.91,3.26-2.14.66-4.29.9-6.43.71-2.15-.19-4.22-.78-6.22-1.77-2-.99-3.74-2.37-5.22-4.14-1.51-1.8-2.58-3.77-3.21-5.91-.63-2.14-.85-4.28-.67-6.43.19-2.15.79-4.22,1.8-6.24,1.01-2.01,2.42-3.77,4.22-5.28Z"/>
    <path class="cls-1" d="M118.29,1.15v32.64h-8.55v-16.36c0-1.26-.24-2.44-.72-3.53-.48-1.09-1.14-2.05-1.99-2.88s-1.83-1.47-2.94-1.93c-1.11-.46-2.27-.69-3.49-.69s-2.44.24-3.53.72c-1.09.48-2.06,1.13-2.9,1.93s-1.51,1.77-1.99,2.88c-.48,1.11-.72,2.3-.72,3.57s.24,2.38.72,3.47c.48,1.09,1.14,2.05,1.99,2.88.85.83,1.82,1.49,2.9,1.97,1.09.48,2.26.72,3.53.72,1.35,0,2.5-.24,3.46-.72h.07v.13l3.26,5.81-.07.07c-2.13,1.65-4.77,2.48-7.9,2.48-2.31,0-4.48-.44-6.53-1.31-2.05-.87-3.83-2.07-5.35-3.59-1.52-1.52-2.73-3.31-3.62-5.35-.89-2.04-1.34-4.22-1.34-6.53s.45-4.55,1.34-6.59c.89-2.05,2.1-3.83,3.62-5.35,1.52-1.52,3.31-2.73,5.35-3.62,2.04-.89,4.22-1.34,6.53-1.34s4.24.42,5.94,1.26,3.15,2.06,4.37,3.66V1.15h8.55Z"/>
  </g>
  <g>
    <path class="cls-1" d="M305.79,12.52c-.63-2.14-1.7-4.11-3.21-5.91-.81-.97-1.69-1.82-2.65-2.55l-.13-.06-12.7,10.66,1.08,7.79,9.5-7.97c.71,1.79.9,3.59.57,5.4-.33,1.81-1.23,3.33-2.69,4.56-.9.75-1.9,1.29-3.01,1.59s-2.21.4-3.31.27c-1.1-.12-2.17-.47-3.21-1.04-1.04-.57-1.98-1.35-2.82-2.34-.64-.76-1.15-1.68-1.54-2.74-.38-1.07-.57-2.17-.56-3.31.01-1.14.23-2.27.65-3.39.42-1.12,1.14-2.1,2.14-2.94.9-.75,1.83-1.32,2.79-1.7s2.14-.42,3.53-.11h.09s.06-.12.06-.12l3.66-7.42-.19-.02c-2.61-.67-5.24-.71-7.88-.09-2.64.61-4.99,1.78-7.06,3.52-1.8,1.51-3.21,3.26-4.24,5.26-1.02,1.99-1.63,4.07-1.82,6.21-.19,2.15.03,4.29.67,6.43.63,2.14,1.69,4.09,3.17,5.86,1.51,1.8,3.26,3.2,5.26,4.19,2,.99,4.07,1.58,6.22,1.77,2.14.19,4.3-.04,6.45-.69,2.16-.65,4.14-1.72,5.93-3.23,1.77-1.48,3.15-3.22,4.14-5.22.99-2,1.58-4.07,1.77-6.22.19-2.15-.03-4.29-.67-6.43Z"/>
    <path class="cls-1" d="M231.05,14.39v19.45h-8.68l.07-19.5c0-.7-.13-1.35-.39-1.96-.26-.61-.62-1.16-1.08-1.64-.46-.48-1-.86-1.63-1.14-.63-.28-1.3-.43-1.99-.43-1.44,0-2.65.51-3.66,1.54-1,1.03-1.5,2.24-1.5,3.63v19.5h-8.68V14.34c0-.7-.13-1.35-.39-1.96-.26-.61-.63-1.16-1.11-1.64-.48-.48-1.03-.85-1.66-1.11-.63-.26-1.34-.39-2.12-.39V1.07c.88-.26,1.79-.39,2.74-.39,2.44,0,4.42.54,5.94,1.62,1.52,1.08,2.7,2.42,3.52,4.02.17-.3.35-.56.52-.78,1.22-1.6,2.6-2.81,4.15-3.63,1.54-.82,3.17-1.23,4.86-1.23,2.05,0,3.77.4,5.19,1.21,1.41.81,2.56,1.86,3.43,3.17.87,1.31,1.5,2.77,1.89,4.41.39,1.63.59,3.28.59,4.93Z"/>
    <polygon class="cls-1" points="195.7 1.21 195.7 33.85 187.02 33.85 187.02 9.89 195.7 9.89 187.02 1.21 195.7 1.21"/>
    <path class="cls-1" d="M261.47,1.21v4.4c-1.22-1.59-2.68-2.81-4.37-3.66-1.7-.84-3.68-1.26-5.94-1.26s-4.48.45-6.53,1.34c-2.05.89-3.83,2.1-5.35,3.62-1.52,1.53-2.73,3.31-3.62,5.35-.89,2.05-1.34,4.24-1.34,6.59s.45,4.48,1.34,6.53c.89,2.05,2.1,3.83,3.62,5.35,1.52,1.52,3.31,2.72,5.35,3.59s4.22,1.31,6.53,1.31c3.13,0,5.77-.83,7.9-2.48l.07-.07-3.27-5.81v-.13h-.07c-.96.48-2.11.72-3.46.72-1.26,0-2.44-.24-3.52-.72-1.09-.48-2.06-1.13-2.9-1.97-.85-.83-1.51-1.79-1.99-2.88-.48-1.09-.72-2.25-.72-3.47s.24-2.45.72-3.57c.48-1.11,1.14-2.07,1.99-2.88.85-.81,1.82-1.45,2.9-1.93,1.09-.48,2.26-.72,3.52-.72s2.38.23,3.49.69c1.11.46,2.09,1.1,2.94,1.93.85.83,1.51,1.79,1.99,2.88.48,1.09.72,2.27.72,3.53v16.36h8.55V1.21h-8.55Z"/>
    <path class="cls-1" d="M318.01.69h-8.68v33.16h8.68V9.35h-8.66l8.66-8.66Z"/>
  </g>
  <path class="cls-2" d="M352.94,17.24c-12.46,2.29-14.32,4.15-16.61,16.61-2.29-12.46-4.15-14.32-16.61-16.61,12.46-2.29,14.32-4.15,16.61-16.61,2.29,12.46,4.15,14.32,16.61,16.61Z"/>
</svg>