<?xml version="1.0" encoding="UTF-8"?>
<svg id="Layer_2" data-name="Layer 2" xmlns="http://www.w3.org/2000/svg" viewBox="0 0 1079.99 236.57">
  <defs>
    <style>
      .cls-1 {
        fill: #eaeaea;
        stroke-width: 0px;
      }
    </style>
  </defs>
  <g id="Layer_1-2" data-name="Layer 1-2">
    <path class="cls-1" d="m92.1,52.99v130.27h31.54v53.31H0v-53.31h31.54V52.99H0V0h123.64v52.99h-31.54ZM449.16,0v236.57h-60.25V89.26h-1.26l-86.43,144.78V89.26h-.95l-88.63,147.3h-72.23L301.85,0h59.61v40.69L389.23,0h59.93ZM686.04,0v236.57h-60.25V88.95h-.63l-88.95,147.62h-72.55L626.11,0h59.93Zm255.17,102.2l-79.49,127.74c-6.1,2.1-12.62,3.74-19.56,4.89-6.94,1.16-14.09,1.74-21.45,1.74-9.25,0-18.09-.95-26.49-2.84-13.67-2.94-26.23-7.99-37.69-15.14s-21.4-15.82-29.81-26.02c-8.41-10.2-14.98-21.71-19.71-34.54-4.73-12.83-7.1-26.5-7.1-41,0-17.03,3.2-32.7,9.62-47,6.41-14.3,15.19-26.65,26.34-37.06,11.14-10.41,24.08-18.5,38.8-24.29C789.38,2.9,805.16,0,821.98,0,831.44,0,840.8,1.1,850.05,3.31c9.25,2.21,18.14,5.42,26.65,9.62,8.52,4.21,16.51,9.36,23.97,15.46,7.46,6.1,13.93,12.93,19.4,20.5,7.15,9.89,12.3,20.4,15.46,31.54h-64.98c-5.47-9.46-12.51-16.77-21.13-21.92-8.63-5.15-18.3-7.73-29.02-7.73-9.26,0-17.72,1.79-25.39,5.36-7.68,3.58-14.25,8.36-19.71,14.35-5.47,5.99-9.73,13.04-12.77,21.13-3.05,8.1-4.57,16.56-4.57,25.39s1.47,18.03,4.42,26.34c2.94,8.31,7.1,15.56,12.46,21.77,5.36,6.2,11.88,11.15,19.56,14.82,7.68,3.68,16.35,5.52,26.02,5.52,1.26,0,2.41-.05,3.47-.16,1.05-.1,2.1-.16,3.15-.16l24.92-36.27h-44.79v-46.68h134.05-.01Zm107.24-49.21v130.27h31.54v53.31h-123.64v-53.31h31.54V52.99h-31.54V0h123.64v52.99s-31.54,0-31.54,0Z"/>
  </g>
</svg>